<svg width="129" height="29" viewBox="0 0 129 29" fill="none" xmlns="http://www.w3.org/2000/svg">
<path d="M14.0234 4.87891L5.91797 29H0.234375L10.8594 0.5625H14.4922L14.0234 4.87891ZM20.8008 29L12.6562 4.87891L12.168 0.5625H15.8203L26.5039 29H20.8008ZM20.4297 18.4336V22.6719H5.17578V18.4336H20.4297ZM56.6805 24.7812V29H42.3836V24.7812H56.6805ZM44.0047 0.5625V29H38.6336V0.5625H44.0047ZM81.1734 4.87891L73.068 29H67.3844L78.0094 0.5625H81.6422L81.1734 4.87891ZM87.9508 29L79.8063 4.87891L79.318 0.5625H82.9703L93.6539 29H87.9508ZM87.5797 18.4336V22.6719H72.3258V18.4336H87.5797ZM128.635 0.5625V29H123.245L111.155 9.27344V29H105.784V0.5625H111.155L123.284 20.3086V0.5625H128.635Z" fill="url(#paint0_linear_26_69)"/>
<defs>
<linearGradient id="paint0_linear_26_69" x1="0" y1="-8" x2="132" y2="47" gradientUnits="userSpaceOnUse">
<stop stop-color="#4884EE"/>
<stop offset="1" stop-color="#06BCFB"/>
</linearGradient>
</defs>
</svg>
